<svg width="3580" height="2552" viewBox="0 0 3580 2552" fill="none" xmlns="http://www.w3.org/2000/svg">
<g clip-path="url(#clip0_4_7)">
<rect width="3580" height="2552" fill="white"/>
<path d="M0 157.111L49.7222 148.619C99.4444 140.126 198.889 123.141 298.333 169.85C397.778 216.559 497.222 326.962 596.667 365.178C696.111 403.394 795.556 369.424 895 326.962C994.444 284.499 1093.89 233.544 1193.33 254.775C1292.78 276.007 1392.22 369.424 1491.67 386.409C1591.11 403.394 1690.56 343.947 1790 305.73C1889.44 267.514 1988.89 250.529 2088.33 246.283C2187.78 242.037 2287.22 250.529 2386.67 297.238C2486.11 343.947 2585.56 428.872 2685 467.088C2784.44 505.305 2883.89 496.812 2983.33 492.566C3082.78 488.319 3182.22 488.319 3281.67 433.118C3381.11 377.917 3480.56 267.514 3530.28 212.313L3580 157.111V0H3530.28C3480.56 0 3381.11 0 3281.67 0C3182.22 0 3082.78 0 2983.33 0C2883.89 0 2784.44 0 2685 0C2585.56 0 2486.11 0 2386.67 0C2287.22 0 2187.78 0 2088.33 0C1988.89 0 1889.44 0 1790 0C1690.56 0 1591.11 0 1491.67 0C1392.22 0 1292.78 0 1193.33 0C1093.89 0 994.444 0 895 0C795.556 0 696.111 0 596.667 0C497.222 0 397.778 0 298.333 0C198.889 0 99.4444 0 49.7222 0H0V157.111Z" fill="#BDE8F4"/>
<path d="M0 386.409L49.7222 377.917C99.4444 369.424 198.889 352.439 298.333 377.917C397.778 403.394 497.222 471.335 596.667 513.797C696.111 556.26 795.556 573.245 895 556.26C994.444 539.275 1093.89 488.32 1193.33 522.29C1292.78 556.26 1392.22 675.155 1491.67 709.125C1591.11 743.095 1690.56 692.14 1790 653.924C1889.44 615.707 1988.89 590.23 2088.33 611.461C2187.78 632.692 2287.22 700.632 2386.67 713.371C2486.11 726.11 2585.56 683.647 2685 726.11C2784.44 768.572 2883.89 895.96 2983.33 895.96C3082.78 895.96 3182.22 768.572 3281.67 679.401C3381.11 590.23 3480.56 539.275 3530.28 513.797L3580 488.32V148.619L3530.28 203.82C3480.56 259.022 3381.11 369.424 3281.67 424.626C3182.22 479.827 3082.78 479.827 2983.33 484.073C2883.89 488.32 2784.44 496.812 2685 458.596C2585.56 420.379 2486.11 335.454 2386.67 288.745C2287.22 242.037 2187.78 233.544 2088.33 237.79C1988.89 242.037 1889.44 259.022 1790 297.238C1690.56 335.454 1591.11 394.902 1491.67 377.917C1392.22 360.932 1292.78 267.514 1193.33 246.283C1093.89 225.052 994.444 276.007 895 318.469C795.556 360.932 696.111 394.902 596.667 356.686C497.222 318.469 397.778 208.067 298.333 161.358C198.889 114.649 99.4444 131.634 49.7222 140.127L0 148.619V386.409Z" fill="#CAE5EC"/>
<path d="M0 1532.9L49.7222 1613.58C99.4444 1694.26 198.889 1855.61 298.333 1927.8C397.778 1999.99 497.222 1983 596.667 1872.6C696.111 1762.2 795.556 1558.38 895 1367.29C994.444 1176.21 1093.89 997.87 1193.33 985.131C1292.78 972.393 1392.22 1125.26 1491.67 1210.18C1591.11 1295.11 1690.56 1312.09 1790 1256.89C1889.44 1201.69 1988.89 1074.3 2088.33 1019.1C2187.78 963.9 2287.22 980.885 2386.67 1031.84C2486.11 1082.8 2585.56 1167.72 2685 1273.88C2784.44 1380.03 2883.89 1507.42 2983.33 1528.65C3082.78 1549.88 3182.22 1464.96 3281.67 1337.57C3381.11 1210.18 3480.56 1040.33 3530.28 955.408L3580 870.482V479.827L3530.28 505.304C3480.56 530.782 3381.11 581.737 3281.67 670.908C3182.22 760.08 3082.78 887.468 2983.33 887.468C2883.89 887.468 2784.44 760.08 2685 717.617C2585.56 675.155 2486.11 717.617 2386.67 704.878C2287.22 692.14 2187.78 624.2 2088.33 602.968C1988.89 581.737 1889.44 607.215 1790 645.431C1690.56 683.647 1591.11 734.602 1491.67 700.632C1392.22 666.662 1292.78 547.767 1193.33 513.797C1093.89 479.827 994.444 530.782 895 547.767C795.556 564.752 696.111 547.767 596.667 505.304C497.222 462.842 397.778 394.902 298.333 369.424C198.889 343.947 99.4444 360.932 49.7222 369.424L0 377.917V1532.9Z" fill="#BAE0ED"/>
<path d="M0 2322.71L49.7222 2318.47C99.4444 2314.22 198.889 2305.73 298.333 2301.48C397.778 2297.23 497.222 2297.23 596.667 2225.05C696.111 2152.86 795.556 2008.49 895 1932.06C994.444 1855.62 1093.89 1847.13 1193.33 1876.86C1292.78 1906.58 1392.22 1974.52 1491.67 1978.77C1591.11 1983.01 1690.56 1923.56 1790 1893.84C1889.44 1864.12 1988.89 1864.12 2088.33 1859.87C2187.78 1855.62 2287.22 1847.13 2386.67 1872.61C2486.11 1898.09 2585.56 1957.53 2685 1987.26C2784.44 2016.98 2883.89 2016.98 2983.33 2076.43C3082.78 2135.88 3182.22 2254.77 3281.67 2216.56C3381.11 2178.34 3480.56 1983.01 3530.28 1885.35L3580 1787.68V862L3530.28 946.925C3480.56 1031.85 3381.11 1201.7 3281.67 1329.09C3182.22 1456.48 3082.78 1541.4 2983.33 1520.17C2883.89 1498.94 2784.44 1371.55 2685 1265.39C2585.56 1159.24 2486.11 1074.31 2386.67 1023.36C2287.22 972.403 2187.78 955.418 2088.33 1010.62C1988.89 1065.82 1889.44 1193.21 1790 1248.41C1690.56 1303.61 1591.11 1286.63 1491.67 1201.7C1392.22 1116.78 1292.78 963.91 1193.33 976.649C1093.89 989.388 994.444 1167.73 895 1358.81C795.556 1549.89 696.111 1753.71 596.667 1864.12C497.222 1974.52 397.778 1991.5 298.333 1919.32C198.889 1847.13 99.4444 1685.77 49.7222 1605.09L0 1524.42V2322.71Z" fill="#ADDFED"/>
<path d="M0 2552H49.7222C99.4444 2552 198.889 2552 298.333 2552C397.778 2552 497.222 2552 596.667 2552C696.111 2552 795.556 2552 895 2552C994.444 2552 1093.89 2552 1193.33 2552C1292.78 2552 1392.22 2552 1491.67 2552C1591.11 2552 1690.56 2552 1790 2552C1889.44 2552 1988.89 2552 2088.33 2552C2187.78 2552 2287.22 2552 2386.67 2552C2486.11 2552 2585.56 2552 2685 2552C2784.44 2552 2883.89 2552 2983.33 2552C3082.78 2552 3182.22 2552 3281.67 2552C3381.11 2552 3480.56 2552 3530.28 2552H3580V1779.18L3530.28 1876.85C3480.56 1974.51 3381.11 2169.84 3281.67 2208.05C3182.22 2246.27 3082.78 2127.37 2983.33 2067.93C2883.89 2008.48 2784.44 2008.48 2685 1978.76C2585.56 1949.03 2486.11 1889.58 2386.67 1864.11C2287.22 1838.63 2187.78 1847.12 2088.33 1851.37C1988.89 1855.61 1889.44 1855.61 1790 1885.34C1690.56 1915.06 1591.11 1974.51 1491.67 1970.26C1392.22 1966.02 1292.78 1898.08 1193.33 1868.35C1093.89 1838.63 994.444 1847.12 895 1923.55C795.556 1999.99 696.111 2144.36 596.667 2216.55C497.222 2288.73 397.778 2288.73 298.333 2292.98C198.889 2297.22 99.4444 2305.72 49.7222 2309.96L0 2314.21V2552Z" fill="#A0D9EA"/>
<g filter="url(#filter0_d_4_7)">
<ellipse cx="2769.5" cy="448.5" rx="287.5" ry="268.5" fill="url(#paint0_linear_4_7)" shape-rendering="crispEdges"/>
</g>
<g filter="url(#filter1_f_4_7)">
<ellipse cx="2770" cy="462" rx="320" ry="295" fill="url(#paint1_linear_4_7)" fill-opacity="0.1"/>
</g>
</g>
<defs>
<filter id="filter0_d_4_7" x="2478" y="180" width="583" height="545" filterUnits="userSpaceOnUse" color-interpolation-filters="sRGB">
<feFlood flood-opacity="0" result="BackgroundImageFix"/>
<feColorMatrix in="SourceAlpha" type="matrix" values="0 0 0 0 0 0 0 0 0 0 0 0 0 0 0 0 0 0 127 0" result="hardAlpha"/>
<feOffset dy="4"/>
<feGaussianBlur stdDeviation="2"/>
<feComposite in2="hardAlpha" operator="out"/>
<feColorMatrix type="matrix" values="0 0 0 0 0.854167 0 0 0 0 0.609733 0 0 0 0 0.135243 0 0 0 0.4 0"/>
<feBlend mode="normal" in2="BackgroundImageFix" result="effect1_dropShadow_4_7"/>
<feBlend mode="normal" in="SourceGraphic" in2="effect1_dropShadow_4_7" result="shape"/>
</filter>
<filter id="filter1_f_4_7" x="2446" y="163" width="648" height="598" filterUnits="userSpaceOnUse" color-interpolation-filters="sRGB">
<feFlood flood-opacity="0" result="BackgroundImageFix"/>
<feBlend mode="normal" in="SourceGraphic" in2="BackgroundImageFix" result="shape"/>
<feGaussianBlur stdDeviation="2" result="effect1_foregroundBlur_4_7"/>
</filter>
<linearGradient id="paint0_linear_4_7" x1="2769.5" y1="180" x2="2769.5" y2="717" gradientUnits="userSpaceOnUse">
<stop stop-color="#FFE935"/>
<stop offset="1" stop-color="#DA9B22" stop-opacity="0.5"/>
</linearGradient>
<linearGradient id="paint1_linear_4_7" x1="2770" y1="167" x2="2770" y2="757" gradientUnits="userSpaceOnUse">
<stop stop-color="#FFE300"/>
<stop offset="1" stop-color="#E9D738" stop-opacity="0.5"/>
</linearGradient>
<clipPath id="clip0_4_7">
<rect width="3580" height="2552" fill="white"/>
</clipPath>
</defs>
</svg>
