<svg width="242" height="109" viewBox="0 0 242 109" fill="none" xmlns="http://www.w3.org/2000/svg">
<g filter="url(#filter0_d_2_26)">
<path d="M235 76.9921C235 96.5092 185.379 94.9715 118 94.9715C50.6213 94.9715 7 96.5092 7 76.9921C7 57.4749 68.6213 58.0014 136 58.0014C203.379 58.0014 235 57.4749 235 76.9921Z" fill="white"/>
</g>
<ellipse cx="31" cy="75.5" rx="24" ry="15.5" fill="white"/>
<ellipse cx="35.5" cy="61" rx="19.5" ry="18" fill="white"/>
<ellipse cx="60.5" cy="47" rx="19.5" ry="18" fill="white"/>
<ellipse cx="152" cy="38" rx="24" ry="21" fill="white"/>
<ellipse cx="199" cy="59.5" rx="23" ry="16.5" fill="white"/>
<ellipse cx="104.5" cy="30.5" rx="35.5" ry="30.5" fill="white"/>
<ellipse cx="163.5" cy="43" rx="35.5" ry="33" fill="white"/>
<ellipse cx="210.5" cy="75.5" rx="23.5" ry="15.5" fill="white"/>
<rect x="49" y="38" width="141" height="40" fill="white"/>
<defs>
<filter id="filter0_d_2_26" x="0" y="58" width="242" height="51" filterUnits="userSpaceOnUse" color-interpolation-filters="sRGB">
<feFlood flood-opacity="0" result="BackgroundImageFix"/>
<feColorMatrix in="SourceAlpha" type="matrix" values="0 0 0 0 0 0 0 0 0 0 0 0 0 0 0 0 0 0 127 0" result="hardAlpha"/>
<feOffset dy="7"/>
<feGaussianBlur stdDeviation="3.5"/>
<feComposite in2="hardAlpha" operator="out"/>
<feColorMatrix type="matrix" values="0 0 0 0 0 0 0 0 0 0 0 0 0 0 0 0 0 0 0.25 0"/>
<feBlend mode="normal" in2="BackgroundImageFix" result="effect1_dropShadow_2_26"/>
<feBlend mode="normal" in="SourceGraphic" in2="effect1_dropShadow_2_26" result="shape"/>
</filter>
</defs>
</svg>
