<svg width="242" height="99" viewBox="0 0 242 99" fill="none" xmlns="http://www.w3.org/2000/svg">
<g filter="url(#filter0_d_2_13)">
<path d="M235 68.4522C235 86.3868 185.379 84.9738 118 84.9738C50.6213 84.9738 7 86.3868 7 68.4522C7 50.5175 68.6213 51.0013 136 51.0013C203.379 51.0013 235 50.5175 235 68.4522Z" fill="white"/>
</g>
<ellipse cx="31" cy="66" rx="24" ry="16" fill="white"/>
<ellipse cx="45.5" cy="46" rx="19.5" ry="18" fill="white"/>
<ellipse cx="152" cy="28" rx="24" ry="21" fill="white"/>
<ellipse cx="190" cy="41.5" rx="23" ry="16.5" fill="white"/>
<ellipse cx="96.5" cy="33" rx="35.5" ry="33" fill="white"/>
<ellipse cx="210.5" cy="66" rx="23.5" ry="16" fill="white"/>
<rect x="61" y="37" width="129" height="31" fill="white"/>
<defs>
<filter id="filter0_d_2_13" x="0" y="51" width="242" height="48" filterUnits="userSpaceOnUse" color-interpolation-filters="sRGB">
<feFlood flood-opacity="0" result="BackgroundImageFix"/>
<feColorMatrix in="SourceAlpha" type="matrix" values="0 0 0 0 0 0 0 0 0 0 0 0 0 0 0 0 0 0 127 0" result="hardAlpha"/>
<feOffset dy="7"/>
<feGaussianBlur stdDeviation="3.5"/>
<feComposite in2="hardAlpha" operator="out"/>
<feColorMatrix type="matrix" values="0 0 0 0 0 0 0 0 0 0 0 0 0 0 0 0 0 0 0.25 0"/>
<feBlend mode="normal" in2="BackgroundImageFix" result="effect1_dropShadow_2_13"/>
<feBlend mode="normal" in="SourceGraphic" in2="effect1_dropShadow_2_13" result="shape"/>
</filter>
</defs>
</svg>
