<svg width="242" height="122" viewBox="0 0 242 122" fill="none" xmlns="http://www.w3.org/2000/svg">
<g filter="url(#filter0_d_1_16)">
<path d="M235 87.0711C235 109.754 185.379 107.967 118 107.967C50.6213 107.967 7 109.754 7 87.0711C7 64.3881 68.6213 65 136 65C203.379 65 235 64.3881 235 87.0711Z" fill="white"/>
</g>
<ellipse cx="30" cy="82.5" rx="24" ry="21.5" fill="white"/>
<ellipse cx="56.5" cy="65" rx="19.5" ry="18" fill="white"/>
<ellipse cx="91" cy="50" rx="24" ry="21" fill="white"/>
<ellipse cx="190" cy="54.5" rx="23" ry="16.5" fill="white"/>
<ellipse cx="141.5" cy="38" rx="35.5" ry="38" fill="white"/>
<ellipse cx="212.5" cy="82" rx="23.5" ry="21" fill="white"/>
<rect x="83" y="51" width="107" height="31" fill="white"/>
<defs>
<filter id="filter0_d_1_16" x="0" y="64.9984" width="242" height="57.0016" filterUnits="userSpaceOnUse" color-interpolation-filters="sRGB">
<feFlood flood-opacity="0" result="BackgroundImageFix"/>
<feColorMatrix in="SourceAlpha" type="matrix" values="0 0 0 0 0 0 0 0 0 0 0 0 0 0 0 0 0 0 127 0" result="hardAlpha"/>
<feOffset dy="7"/>
<feGaussianBlur stdDeviation="3.5"/>
<feComposite in2="hardAlpha" operator="out"/>
<feColorMatrix type="matrix" values="0 0 0 0 0 0 0 0 0 0 0 0 0 0 0 0 0 0 0.25 0"/>
<feBlend mode="normal" in2="BackgroundImageFix" result="effect1_dropShadow_1_16"/>
<feBlend mode="normal" in="SourceGraphic" in2="effect1_dropShadow_1_16" result="shape"/>
</filter>
</defs>
</svg>
